<?xml version="1.0" encoding="utf-8"?>
<!-- Generator: Adobe Illustrator 19.0.0, SVG Export Plug-In . SVG Version: 6.00 Build 0)  -->
<svg version="1.1" id="Camada_1" focusable="false" xmlns="http://www.w3.org/2000/svg" xmlns:xlink="http://www.w3.org/1999/xlink"
	 x="0px" y="0px" viewBox="-175 45 448 512" style="enable-background:new -175 45 448 512;" xml:space="preserve">
<path d="M-159,177h416c8.8,0,16-7.2,16-16v-40c0-8.8-7.2-16-16-16h-416c-8.8,0-16,7.2-16,16v40C-175,169.8-167.8,177-159,177z
	 M-159,337h416c8.8,0,16-7.2,16-16v-40c0-8.8-7.2-16-16-16h-416c-8.8,0-16,7.2-16,16v40C-175,329.8-167.8,337-159,337z M-159,497
	h416c8.8,0,16-7.2,16-16v-40c0-8.8-7.2-16-16-16h-416c-8.8,0-16,7.2-16,16v40C-175,489.8-167.8,497-159,497z"/>
</svg>
