<?xml version="1.0" encoding="utf-8"?>
<!-- Generator: Adobe Illustrator 19.0.0, SVG Export Plug-In . SVG Version: 6.00 Build 0)  -->
<svg version="1.1" id="Camada_1" focusable="false" xmlns="http://www.w3.org/2000/svg" xmlns:xlink="http://www.w3.org/1999/xlink"
	 x="0px" y="0px" viewBox="-143 45 512 512" style="enable-background:new -143 45 512 512;" xml:space="preserve">
<path d="M362,487.7L262.3,388c-4.5-4.5-10.6-7-17-7H229c27.6-35.3,44-79.7,44-128c0-114.9-93.1-208-208-208s-208,93.1-208,208
	s93.1,208,208,208c48.3,0,92.7-16.4,128-44v16.3c0,6.4,2.5,12.5,7,17l99.7,99.7c9.4,9.4,24.6,9.4,33.9,0l28.3-28.3
	C371.3,512.3,371.3,497.1,362,487.7z M65,381c-70.7,0-128-57.2-128-128c0-70.7,57.2-128,128-128c70.7,0,128,57.2,128,128
	C193,323.7,135.8,381,65,381z"/>
</svg>
